<mxfile host="Electron" agent="Mozilla/5.0 (Windows NT 10.0; Win64; x64) AppleWebKit/537.36 (KHTML, like Gecko) draw.io/26.0.9 Chrome/128.0.6613.186 Electron/32.2.5 Safari/537.36" version="26.0.9">
  <diagram name="Page-1" id="QkDz-LqzZp6vbA2Y18w1">
    <mxGraphModel dx="864" dy="516" grid="1" gridSize="10" guides="1" tooltips="1" connect="1" arrows="1" fold="1" page="1" pageScale="1" pageWidth="827" pageHeight="1169" math="0" shadow="0">
      <root>
        <mxCell id="0" />
        <mxCell id="1" parent="0" />
        <mxCell id="juhsRqXBqeGDenJz_8iQ-2" value="&lt;b&gt;&lt;font style=&quot;font-size: 32px;&quot;&gt;Data Flow Diagram&lt;/font&gt;&lt;/b&gt;" style="whiteSpace=wrap;html=1;fillColor=none;strokeColor=none;" parent="1" vertex="1">
          <mxGeometry width="331" height="60" as="geometry" />
        </mxCell>
        <mxCell id="juhsRqXBqeGDenJz_8iQ-3" value="" style="rounded=0;whiteSpace=wrap;html=1;fillColor=none;dashed=1;" parent="1" vertex="1">
          <mxGeometry x="20" y="120" width="150" height="360" as="geometry" />
        </mxCell>
        <mxCell id="juhsRqXBqeGDenJz_8iQ-5" value="Sources" style="rounded=0;whiteSpace=wrap;html=1;fontSize=24;fontStyle=1;strokeColor=none;fillColor=default;" parent="1" vertex="1">
          <mxGeometry x="35" y="90" width="120" height="60" as="geometry" />
        </mxCell>
        <mxCell id="juhsRqXBqeGDenJz_8iQ-19" style="edgeStyle=orthogonalEdgeStyle;rounded=0;orthogonalLoop=1;jettySize=auto;html=1;" parent="1" source="juhsRqXBqeGDenJz_8iQ-6" edge="1" target="juhsRqXBqeGDenJz_8iQ-10">
          <mxGeometry relative="1" as="geometry">
            <mxPoint x="250" y="221" as="targetPoint" />
          </mxGeometry>
        </mxCell>
        <mxCell id="juhsRqXBqeGDenJz_8iQ-6" value="CRM" style="image;aspect=fixed;html=1;points=[];align=center;fontSize=12;image=img/lib/azure2/general/Folder_Blank.svg;" parent="1" vertex="1">
          <mxGeometry x="62.46" y="194" width="67.54" height="54.82" as="geometry" />
        </mxCell>
        <mxCell id="juhsRqXBqeGDenJz_8iQ-7" value="ERP" style="image;aspect=fixed;html=1;points=[];align=center;fontSize=12;image=img/lib/azure2/general/Folder_Blank.svg;" parent="1" vertex="1">
          <mxGeometry x="57.53" y="350" width="73.93" height="60" as="geometry" />
        </mxCell>
        <mxCell id="juhsRqXBqeGDenJz_8iQ-8" value="&lt;font style=&quot;font-size: 19px;&quot;&gt;Bronze&lt;/font&gt;" style="rounded=0;whiteSpace=wrap;html=1;fillColor=#EA6B66;strokeColor=#b85450;fontStyle=1" parent="1" vertex="1">
          <mxGeometry x="260" y="105" width="120" height="30" as="geometry" />
        </mxCell>
        <mxCell id="juhsRqXBqeGDenJz_8iQ-9" value="" style="rounded=0;whiteSpace=wrap;html=1;fillColor=none;strokeColor=#b85450;strokeWidth=2;" parent="1" vertex="1">
          <mxGeometry x="250" y="141" width="140" height="339" as="geometry" />
        </mxCell>
        <mxCell id="juhsRqXBqeGDenJz_8iQ-39" style="edgeStyle=orthogonalEdgeStyle;rounded=0;orthogonalLoop=1;jettySize=auto;html=1;fontStyle=1;exitX=1;exitY=0.5;exitDx=0;exitDy=0;entryX=0;entryY=0.5;entryDx=0;entryDy=0;" parent="1" edge="1" target="juhsRqXBqeGDenJz_8iQ-33" source="juhsRqXBqeGDenJz_8iQ-12">
          <mxGeometry relative="1" as="geometry">
            <mxPoint x="472" y="178" as="targetPoint" />
            <mxPoint x="392" y="178" as="sourcePoint" />
          </mxGeometry>
        </mxCell>
        <mxCell id="juhsRqXBqeGDenJz_8iQ-10" value="&lt;font style=&quot;font-size: 14px;&quot;&gt;crm_cust_info&lt;/font&gt;" style="rounded=1;whiteSpace=wrap;html=1;" parent="1" vertex="1">
          <mxGeometry x="260" y="206.41" width="120" height="30" as="geometry" />
        </mxCell>
        <mxCell id="juhsRqXBqeGDenJz_8iQ-11" value="&lt;font style=&quot;font-size: 14px;&quot;&gt;crm_pro_info&lt;/font&gt;" style="rounded=1;whiteSpace=wrap;html=1;" parent="1" vertex="1">
          <mxGeometry x="260" y="260" width="120" height="30" as="geometry" />
        </mxCell>
        <mxCell id="juhsRqXBqeGDenJz_8iQ-12" value="&lt;font style=&quot;font-size: 14px;&quot;&gt;crm_sales_details&lt;/font&gt;" style="rounded=1;whiteSpace=wrap;html=1;" parent="1" vertex="1">
          <mxGeometry x="260" y="160" width="120" height="30" as="geometry" />
        </mxCell>
        <mxCell id="juhsRqXBqeGDenJz_8iQ-13" value="&lt;font style=&quot;font-size: 14px;&quot;&gt;erp_cust_az12&lt;/font&gt;" style="rounded=1;whiteSpace=wrap;html=1;" parent="1" vertex="1">
          <mxGeometry x="260" y="320" width="120" height="30" as="geometry" />
        </mxCell>
        <mxCell id="juhsRqXBqeGDenJz_8iQ-14" value="&lt;font style=&quot;font-size: 14px;&quot;&gt;erp_loc_a101&lt;/font&gt;" style="rounded=1;whiteSpace=wrap;html=1;" parent="1" vertex="1">
          <mxGeometry x="260" y="365" width="120" height="30" as="geometry" />
        </mxCell>
        <mxCell id="juhsRqXBqeGDenJz_8iQ-15" value="&lt;font style=&quot;font-size: 14px;&quot;&gt;erp_px_cat_g1v2&lt;/font&gt;" style="rounded=1;whiteSpace=wrap;html=1;" parent="1" vertex="1">
          <mxGeometry x="260" y="410" width="120" height="30" as="geometry" />
        </mxCell>
        <mxCell id="juhsRqXBqeGDenJz_8iQ-17" style="edgeStyle=orthogonalEdgeStyle;rounded=0;orthogonalLoop=1;jettySize=auto;html=1;entryX=0;entryY=0.5;entryDx=0;entryDy=0;" parent="1" source="juhsRqXBqeGDenJz_8iQ-6" target="juhsRqXBqeGDenJz_8iQ-12" edge="1">
          <mxGeometry relative="1" as="geometry" />
        </mxCell>
        <mxCell id="juhsRqXBqeGDenJz_8iQ-20" style="edgeStyle=orthogonalEdgeStyle;rounded=0;orthogonalLoop=1;jettySize=auto;html=1;entryX=0;entryY=0.25;entryDx=0;entryDy=0;" parent="1" source="juhsRqXBqeGDenJz_8iQ-6" target="juhsRqXBqeGDenJz_8iQ-11" edge="1">
          <mxGeometry relative="1" as="geometry" />
        </mxCell>
        <mxCell id="juhsRqXBqeGDenJz_8iQ-24" style="edgeStyle=orthogonalEdgeStyle;rounded=0;orthogonalLoop=1;jettySize=auto;html=1;" parent="1" source="juhsRqXBqeGDenJz_8iQ-7" target="juhsRqXBqeGDenJz_8iQ-14" edge="1">
          <mxGeometry relative="1" as="geometry" />
        </mxCell>
        <mxCell id="juhsRqXBqeGDenJz_8iQ-27" style="edgeStyle=orthogonalEdgeStyle;rounded=0;orthogonalLoop=1;jettySize=auto;html=1;" parent="1" source="juhsRqXBqeGDenJz_8iQ-7" target="juhsRqXBqeGDenJz_8iQ-13" edge="1">
          <mxGeometry relative="1" as="geometry" />
        </mxCell>
        <mxCell id="juhsRqXBqeGDenJz_8iQ-28" style="edgeStyle=orthogonalEdgeStyle;rounded=0;orthogonalLoop=1;jettySize=auto;html=1;" parent="1" source="juhsRqXBqeGDenJz_8iQ-7" target="juhsRqXBqeGDenJz_8iQ-15" edge="1">
          <mxGeometry relative="1" as="geometry" />
        </mxCell>
        <mxCell id="juhsRqXBqeGDenJz_8iQ-29" value="&lt;span style=&quot;font-size: 19px;&quot;&gt;Silver&lt;/span&gt;" style="rounded=0;whiteSpace=wrap;html=1;fillColor=#f5f5f5;strokeColor=#666666;fontStyle=1;fontColor=#333333;" parent="1" vertex="1">
          <mxGeometry x="482" y="105" width="120" height="30" as="geometry" />
        </mxCell>
        <mxCell id="juhsRqXBqeGDenJz_8iQ-30" value="" style="rounded=0;whiteSpace=wrap;html=1;fillColor=none;strokeColor=#666666;strokeWidth=2;fontColor=#333333;" parent="1" vertex="1">
          <mxGeometry x="472" y="141" width="140" height="339" as="geometry" />
        </mxCell>
        <mxCell id="juhsRqXBqeGDenJz_8iQ-31" value="&lt;font style=&quot;font-size: 14px;&quot;&gt;crm_cust_info&lt;/font&gt;" style="rounded=1;whiteSpace=wrap;html=1;fillColor=#f5f5f5;fontColor=#333333;strokeColor=#666666;" parent="1" vertex="1">
          <mxGeometry x="482" y="206.41" width="120" height="30" as="geometry" />
        </mxCell>
        <mxCell id="juhsRqXBqeGDenJz_8iQ-32" value="&lt;font style=&quot;font-size: 14px;&quot;&gt;crm_pro_info&lt;/font&gt;" style="rounded=1;whiteSpace=wrap;html=1;fillColor=#f5f5f5;fontColor=#333333;strokeColor=#666666;" parent="1" vertex="1">
          <mxGeometry x="482" y="260" width="120" height="30" as="geometry" />
        </mxCell>
        <mxCell id="juhsRqXBqeGDenJz_8iQ-33" value="&lt;font style=&quot;font-size: 14px;&quot;&gt;crm_sales_details&lt;/font&gt;" style="rounded=1;whiteSpace=wrap;html=1;fillColor=#f5f5f5;fontColor=#333333;strokeColor=#666666;" parent="1" vertex="1">
          <mxGeometry x="482" y="160" width="120" height="30" as="geometry" />
        </mxCell>
        <mxCell id="juhsRqXBqeGDenJz_8iQ-34" value="&lt;font style=&quot;font-size: 14px;&quot;&gt;erp_cust_az12&lt;/font&gt;" style="rounded=1;whiteSpace=wrap;html=1;fillColor=#f5f5f5;fontColor=#333333;strokeColor=#666666;" parent="1" vertex="1">
          <mxGeometry x="482" y="320" width="120" height="30" as="geometry" />
        </mxCell>
        <mxCell id="juhsRqXBqeGDenJz_8iQ-35" value="&lt;font style=&quot;font-size: 14px;&quot;&gt;erp_loc_a101&lt;/font&gt;" style="rounded=1;whiteSpace=wrap;html=1;fillColor=#f5f5f5;fontColor=#333333;strokeColor=#666666;" parent="1" vertex="1">
          <mxGeometry x="482" y="365" width="120" height="30" as="geometry" />
        </mxCell>
        <mxCell id="juhsRqXBqeGDenJz_8iQ-36" value="&lt;font style=&quot;font-size: 14px;&quot;&gt;erp_px_cat_g1v2&lt;/font&gt;" style="rounded=1;whiteSpace=wrap;html=1;fillColor=#f5f5f5;fontColor=#333333;strokeColor=#666666;" parent="1" vertex="1">
          <mxGeometry x="482" y="410" width="120" height="30" as="geometry" />
        </mxCell>
        <mxCell id="juhsRqXBqeGDenJz_8iQ-40" style="edgeStyle=orthogonalEdgeStyle;rounded=0;orthogonalLoop=1;jettySize=auto;html=1;fontStyle=1" parent="1" edge="1" target="juhsRqXBqeGDenJz_8iQ-31" source="juhsRqXBqeGDenJz_8iQ-10">
          <mxGeometry relative="1" as="geometry">
            <mxPoint x="471" y="222" as="targetPoint" />
            <mxPoint x="391" y="222" as="sourcePoint" />
          </mxGeometry>
        </mxCell>
        <mxCell id="juhsRqXBqeGDenJz_8iQ-41" style="edgeStyle=orthogonalEdgeStyle;rounded=0;orthogonalLoop=1;jettySize=auto;html=1;fontStyle=1" parent="1" edge="1" target="juhsRqXBqeGDenJz_8iQ-32" source="juhsRqXBqeGDenJz_8iQ-11">
          <mxGeometry relative="1" as="geometry">
            <mxPoint x="471" y="275" as="targetPoint" />
            <mxPoint x="391" y="275" as="sourcePoint" />
          </mxGeometry>
        </mxCell>
        <mxCell id="juhsRqXBqeGDenJz_8iQ-42" style="edgeStyle=orthogonalEdgeStyle;rounded=0;orthogonalLoop=1;jettySize=auto;html=1;fontStyle=1" parent="1" edge="1" target="juhsRqXBqeGDenJz_8iQ-34" source="juhsRqXBqeGDenJz_8iQ-13">
          <mxGeometry relative="1" as="geometry">
            <mxPoint x="470" y="337" as="targetPoint" />
            <mxPoint x="390" y="337" as="sourcePoint" />
          </mxGeometry>
        </mxCell>
        <mxCell id="juhsRqXBqeGDenJz_8iQ-43" style="edgeStyle=orthogonalEdgeStyle;rounded=0;orthogonalLoop=1;jettySize=auto;html=1;fontStyle=1" parent="1" edge="1" target="juhsRqXBqeGDenJz_8iQ-35" source="juhsRqXBqeGDenJz_8iQ-14">
          <mxGeometry relative="1" as="geometry">
            <mxPoint x="468" y="381" as="targetPoint" />
            <mxPoint x="388" y="381" as="sourcePoint" />
          </mxGeometry>
        </mxCell>
        <mxCell id="juhsRqXBqeGDenJz_8iQ-44" style="edgeStyle=orthogonalEdgeStyle;rounded=0;orthogonalLoop=1;jettySize=auto;html=1;fontStyle=1" parent="1" edge="1" target="juhsRqXBqeGDenJz_8iQ-36" source="juhsRqXBqeGDenJz_8iQ-15">
          <mxGeometry relative="1" as="geometry">
            <mxPoint x="469" y="426" as="targetPoint" />
            <mxPoint x="389" y="426" as="sourcePoint" />
          </mxGeometry>
        </mxCell>
        <mxCell id="dAK4oTaZvavmls2lnVmP-1" value="&lt;span style=&quot;font-size: 19px;&quot;&gt;Silver&lt;/span&gt;" style="rounded=0;whiteSpace=wrap;html=1;fillColor=#fff2cc;strokeColor=#d6b656;fontStyle=1;" vertex="1" parent="1">
          <mxGeometry x="697" y="100" width="120" height="30" as="geometry" />
        </mxCell>
        <mxCell id="dAK4oTaZvavmls2lnVmP-2" value="" style="rounded=0;whiteSpace=wrap;html=1;fillColor=none;strokeColor=#666666;strokeWidth=2;fontColor=#333333;" vertex="1" parent="1">
          <mxGeometry x="687" y="136" width="140" height="339" as="geometry" />
        </mxCell>
        <mxCell id="dAK4oTaZvavmls2lnVmP-3" value="&lt;font style=&quot;font-size: 14px;&quot;&gt;fact_sales&lt;/font&gt;" style="rounded=1;whiteSpace=wrap;html=1;fillColor=#fff2cc;strokeColor=#d6b656;" vertex="1" parent="1">
          <mxGeometry x="697" y="170" width="120" height="30" as="geometry" />
        </mxCell>
        <mxCell id="dAK4oTaZvavmls2lnVmP-4" value="&lt;font style=&quot;font-size: 14px;&quot;&gt;dim_customers&lt;/font&gt;" style="rounded=1;whiteSpace=wrap;html=1;fillColor=#fff2cc;strokeColor=#d6b656;" vertex="1" parent="1">
          <mxGeometry x="697" y="260" width="120" height="30" as="geometry" />
        </mxCell>
        <mxCell id="dAK4oTaZvavmls2lnVmP-5" value="&lt;font style=&quot;font-size: 14px;&quot;&gt;dim_products&lt;/font&gt;" style="rounded=1;whiteSpace=wrap;html=1;fillColor=#fff2cc;strokeColor=#d6b656;" vertex="1" parent="1">
          <mxGeometry x="697" y="330" width="120" height="30" as="geometry" />
        </mxCell>
        <mxCell id="dAK4oTaZvavmls2lnVmP-11" value="" style="endArrow=classic;html=1;rounded=0;entryX=0;entryY=0.5;entryDx=0;entryDy=0;" edge="1" parent="1" source="juhsRqXBqeGDenJz_8iQ-33" target="dAK4oTaZvavmls2lnVmP-3">
          <mxGeometry width="50" height="50" relative="1" as="geometry">
            <mxPoint x="620" y="290" as="sourcePoint" />
            <mxPoint x="670" y="240" as="targetPoint" />
          </mxGeometry>
        </mxCell>
        <mxCell id="dAK4oTaZvavmls2lnVmP-12" value="" style="endArrow=classic;html=1;rounded=0;jumpStyle=gap;" edge="1" parent="1" source="juhsRqXBqeGDenJz_8iQ-31" target="dAK4oTaZvavmls2lnVmP-4">
          <mxGeometry width="50" height="50" relative="1" as="geometry">
            <mxPoint x="612" y="179" as="sourcePoint" />
            <mxPoint x="707" y="194" as="targetPoint" />
          </mxGeometry>
        </mxCell>
        <mxCell id="dAK4oTaZvavmls2lnVmP-13" value="" style="endArrow=classic;html=1;rounded=0;jumpStyle=gap;" edge="1" parent="1" source="juhsRqXBqeGDenJz_8iQ-32" target="dAK4oTaZvavmls2lnVmP-5">
          <mxGeometry width="50" height="50" relative="1" as="geometry">
            <mxPoint x="620" y="233.82" as="sourcePoint" />
            <mxPoint x="715" y="248.82" as="targetPoint" />
          </mxGeometry>
        </mxCell>
        <mxCell id="dAK4oTaZvavmls2lnVmP-14" value="" style="endArrow=classic;html=1;rounded=0;entryX=0;entryY=0.5;entryDx=0;entryDy=0;jumpStyle=gap;" edge="1" parent="1" source="juhsRqXBqeGDenJz_8iQ-34" target="dAK4oTaZvavmls2lnVmP-4">
          <mxGeometry width="50" height="50" relative="1" as="geometry">
            <mxPoint x="632" y="315" as="sourcePoint" />
            <mxPoint x="727" y="330" as="targetPoint" />
          </mxGeometry>
        </mxCell>
        <mxCell id="dAK4oTaZvavmls2lnVmP-15" value="" style="endArrow=classic;html=1;rounded=0;jumpStyle=gap;entryX=0;entryY=1;entryDx=0;entryDy=0;" edge="1" parent="1" source="juhsRqXBqeGDenJz_8iQ-35" target="dAK4oTaZvavmls2lnVmP-4">
          <mxGeometry width="50" height="50" relative="1" as="geometry">
            <mxPoint x="642" y="325" as="sourcePoint" />
            <mxPoint x="737" y="340" as="targetPoint" />
          </mxGeometry>
        </mxCell>
        <mxCell id="dAK4oTaZvavmls2lnVmP-16" value="" style="endArrow=classic;html=1;rounded=0;entryX=0.25;entryY=1;entryDx=0;entryDy=0;jumpStyle=gap;" edge="1" parent="1" source="juhsRqXBqeGDenJz_8iQ-36" target="dAK4oTaZvavmls2lnVmP-5">
          <mxGeometry width="50" height="50" relative="1" as="geometry">
            <mxPoint x="652" y="335" as="sourcePoint" />
            <mxPoint x="747" y="350" as="targetPoint" />
          </mxGeometry>
        </mxCell>
      </root>
    </mxGraphModel>
  </diagram>
</mxfile>
